<?xml version="1.0" encoding="iso-8859-1"?>
<!-- Generator: Adobe Illustrator 16.0.0, SVG Export Plug-In . SVG Version: 6.00 Build 0)  -->
<!DOCTYPE svg PUBLIC "-//W3C//DTD SVG 1.1//EN" "http://www.w3.org/Graphics/SVG/1.1/DTD/svg11.dtd">
<svg version="1.1" id="Capa_1" xmlns="http://www.w3.org/2000/svg" xmlns:xlink="http://www.w3.org/1999/xlink" x="0px" y="0px"
	 viewBox="0 0 221.859 221.859" style="enable-background:new 0 0 221.859 221.859;"
	 xml:space="preserve">
<g>
	<g id="jM6Ldy_1_">
		<g>
			<g>
				<path d="M85.68,7.104c3.836,0.185,8.407,3.222,9.219,6.353c2.034-1.32,3.623-0.482,5.075,1.071
					c1.991,2.133,4.065,4.192,6.058,6.322c1.94,2.082,2.506,4.836,2.59,7.432c0.186,6.111,2.11,11.705,4.141,17.341
					c0.63,1.747,0.554,3.75,0.844,5.627c0.178,1.175,0.345,2.361,0.67,3.506c0.563,1.971,1.203,3.92,1.889,5.85
					c0.508,1.44,0.178,2.593-0.279,4.075c-0.843,2.734-0.939,5.741-1.061,8.648c-0.468,10.778,5.108,18.403,13.065,24.789
					c4.951,3.971,9.856,8.002,14.706,12.093c3.89,3.283,6.799,7.411,9.003,11.936c1.533,3.169,3.956,5.129,6.876,6.865
					c2.046-1.543,4.031-3.087,6.062-4.569c4.905-3.58,10.816-3.489,15.366-0.976c5.809,3.21,12.278,5.86,16.818,11.061
					c2.133,2.442,3.828,5.271,5.737,7.951c-0.705,0.514-1.817-1.097-2.143-0.863c0.919,3.464,2.447,8.75,3.331,12.097
					c-0.183,0.081-0.365,0.157-0.548,0.233c-0.706-1.503-1.417-3.006-2.123-4.52c-0.167,0.066-0.335,0.122-0.503,0.183
					c0.392,1.62,0.889,3.22,1.143,4.859c0.244,1.62-0.04,6.5,0.081,8.252c0.229-0.111-2.254-2.041-2.254-2.041
					c-0.224,1.3-0.437,2.59-0.66,3.91c-0.508,0.051-0.117,5.433-1.311,0.056c-1.117-5.581,0.554-10.369-6.982-16.682
					c1.62,5.408,5.566,10.223,2.26,15.488c0.305-3.306-3.971-6.114-3.625-9.821c-1.701,4.784,2.387,8.176,0.873,12.391
					c-0.162,0.457-2.052,3.017-2.295,3.026c-3.529,0.178-5.037,2.523-6.013,4.494c-1.097,2.239-1.889,3.428-2.895,5.713
					c-0.224-0.092,4.226-12.68,2.854-15.895c-2.702,0.457-5.236,2.936-5.236,2.936s2.92-4.24,3.104-5.108
					c0.36-1.818,0.243-3.728,0.324-5.505c-1.208,1.59-2.828,4.021-3.93,5.475c-0.254-0.112,3.026-5.784,1.147-9.918
					c-1.249,0.939-1.879,1.407-2.712,2.026c-0.594-1.046-1.29-1.909-1.614-2.899c-0.782-2.361-3.605-1.727-4.773-3.443
					c-1.188,2.057-2.732-0.167-4.276,0.341c-2.234,0.746-3.198-0.188-3.798-2.712c-0.619-2.605-0.914-5.291-1.523-7.901
					c-0.147-0.63-0.985-1.097-1.508-1.646c-0.417,0.519-1.143,1.006-1.204,1.564c-0.934,8.186-6.683,13-12.339,17.92
					c-3.037,2.636-6.267,5.297-5.911,9.933c0.111,1.417,0.452,2.92,1.102,4.174c1.803,3.469,3.764,6.855,5.779,10.207
					c0.935,1.559,1.233,3.021,0.848,4.859c-1.828,8.582-3.555,17.194-5.23,25.812c-0.223,1.152-0.254,2.468,0.066,3.58
					c0.554,1.935-0.259,2.823-1.935,3.189c-2.245,0.497-4.194,1.157-4.783,3.818c-0.122,0.579-1.239,1.111-2.001,1.34
					c-2.387,0.727-4.758,0.655-7.516-0.665c0.898-1.193,1.452-2.646,2.468-3.133c5.327-2.59,6.683-7.46,7.627-12.599
					c0.63-3.479,1.239-6.972,1.61-10.486c0.213-1.99-0.076-4.036-0.564-6.154c-3.879,4.916-8.703,8.947-10.287,15.285
					c-0.295,1.168-2.234,1.925-3.433,2.89c1.848,3.401,1.726,3.985-1.925,6.108c-1.838,1.066-3.813,1.904-6.104,3.037
					c-0.33-3.656,0.492-6.363,1.559-9.11c2.244-5.773,6.073-10.547,9.577-15.528c0.355-0.498,0.7-1.011,1.106-1.463
					c4.754-5.25,3.723-10.714,0.965-16.498c-3.057-6.413-6.408-12.599-10.48-18.443c-1.147-1.65-1.076-4.189-1.427-6.342
					c-0.178-1.066-0.127-2.204-0.041-3.296c0.406-5.048-2.117-8.607-6.027-11.228c-7.114-4.783-13.805-10.029-20.243-15.722
					c-6.724-5.943-11.685-13.131-16.415-20.52c-2.61-4.075-4.425-8.674-6.438-13.114c-0.676-1.49-1.351-2.48-3.151-2.442
					c-1.996,0.041-2.968-1.196-3.656-2.996c-1.102-2.902-2.448-5.71-3.692-8.554c-0.299,0.021-0.597,0.041-0.898,0.068
					c-1.663,3.653-3.329,7.315-5.126,11.268c-0.033-0.14-0.033,0.12,0.076,0.328c0.777,1.46,3.453,1.792,2.404,4.367
					c-1.145,2.803-2.544,5.334-5.56,6.454c-1.866,0.69-3.191-0.193-3.202-2.217c-0.01-1.939,0.302-3.879,0.493-5.816
					c0.048-0.485,0.297-0.963,0.276-1.438c-0.287-5.85,2.48-10.445,6.073-14.652c2.095-4.431,2.849-6.027,0.64-9.318
					c-0.749-1.112-1.343-2.323-2.039-3.473c-1.107-1.826-2.724-2.838-4.882-2.63c-3.836,0.373-7.84,0.066-11.065,2.948
					c-0.615,0.546-1.747,0.508-2.912,0.815c0.769,1.968-0.059,3.704-2.059,4.469c-2.928,1.112-5.891,1.049-8.768-0.455
					c2.158-4.403,3.22-5.246,5.324-4.908c0.884-1.211,1.567-2.257,2.361-3.207c0.701-0.838,1.701-1.467,2.252-2.381
					c0.957-1.592,2.338-1.864,4.014-2.044c4.228-0.459,8.412-1.338,12.646-1.587c3.176-0.193,6.337,0.488,8.381,3.428
					c0.769,1.102,1.564,2.204,2.178,3.389c1.955,3.781,5.918,5.19,9.168,8.133c0.853-1.222,1.871-2.184,2.272-3.359
					c1.3-3.841,4.392-6.104,7.274-8.518c0.835-0.701,2.263-1.143,3.339-1.023c3.832,0.426,4.423,0.03,4.342-3.717
					c-0.005-0.333-0.089-0.667-0.147-1.046c-0.84,0.389-1.579,0.744-2.333,1.072c-0.079,0.036-0.224-0.079-0.526-0.198
					c0.125-2.882,0.254-5.84,0.417-9.483c-6.678,0.929-12.776,1.752-18.865,2.666c-0.777,0.119-1.602,0.566-2.207,1.097
					c-3.087,2.694-4.844,2.788-7.914,0.282c-2.754-2.252-2.1-8.902,1.112-10.331c4.255-1.894,7.675-4.758,10.474-8.419
					c0.297-0.386,0.698-0.782,0.779-1.224c0.957-5.189,4.573-7.985,8.904-10.306c1.168-0.622,2.155-1.933,2.77-3.161
					C75.196,4.362,75.778,2.232,76.595,0c2.833,0.962,2.542,3.375,3.001,5.647c0.929,0.467,2.001,1.003,2.9,1.458
					c1.005-1.815,1.939-3.501,3.188-5.759C85.68,3.489,85.68,5.149,85.68,7.104z"/>
			</g>
		</g>
	</g>
</g>
<g>
</g>
<g>
</g>
<g>
</g>
<g>
</g>
<g>
</g>
<g>
</g>
<g>
</g>
<g>
</g>
<g>
</g>
<g>
</g>
<g>
</g>
<g>
</g>
<g>
</g>
<g>
</g>
<g>
</g>
</svg>
