<?xml version="1.0" encoding="iso-8859-1"?>
<!-- Generator: Adobe Illustrator 17.1.0, SVG Export Plug-In . SVG Version: 6.00 Build 0)  -->
<!DOCTYPE svg PUBLIC "-//W3C//DTD SVG 1.1//EN" "http://www.w3.org/Graphics/SVG/1.1/DTD/svg11.dtd">
<svg version="1.1" id="Capa_1" xmlns="http://www.w3.org/2000/svg" xmlns:xlink="http://www.w3.org/1999/xlink" x="0px" y="0px"
	 viewBox="0 0 390.512 390.512" style="enable-background:new 0 0 390.512 390.512;" xml:space="preserve">
<path d="M328.357,105.728c-12.238-25.498-33.477-70.155-38.208-82.773C286.003,11.899,274.672,0,259.592,0
	c-5.411,0-11.056,1.482-16.778,4.406c-7.116,3.636-11.179,9.904-11.749,18.125c-0.979,14.126,8.069,29.525,13.322,33.202
	c5.724,4.006,9.482,16.063,9.328,19.17c-0.037-0.037-0.077-0.079-0.119-0.125c-2.853-3.074-27.372-18.495-41.824-18.495
	c-15.713,0-54.652,20.445-86.898,58.833c-22.522,26.813-32.02,57.243-38.953,79.463c-3.253,10.423-6.063,19.424-9.345,24.979
	c-6.053,10.245-19.588,35.38-14.543,47.487c1.763,4.23,4.968,6.657,8.795,6.657c6.825,0,14.757-7.417,22.333-20.885
	c9.042-16.075,16.073-18.291,22.325-18.291c2.438,0,4.954,0.363,7.617,0.747c3.052,0.439,6.207,0.895,9.706,0.895
	c2.8,0,5.439-0.295,8.069-0.902c3.557-0.821,7.18-1.679,10.833-2.57c-0.048,7.641-0.099,15.936-0.151,24.566
	c-1.127,1.717-1.801,3.826-1.801,6.111c0,2.238,0.645,4.307,1.729,6.004c-0.245,42.311-0.47,88.731-0.382,103.742
	c-0.144,1.319-5.739,4.275-7.578,5.247c-3.078,1.626-4.007,2.117-3.934,3.383c0.271,4.609,9.329,5.513,25.948,5.567
	c0.802,0.003,1.542,0.005,2.203,0.011c3.093,0.026,10.034,0.746,17.383,1.507c7.957,0.825,16.186,1.678,19.993,1.678
	c1.362,0,3.229,0,3.544-1.527c0.082-0.396,0.084-0.758,0.035-1.1c2.846,0.267,6.093,0.604,9.428,0.95
	c7.957,0.825,16.186,1.678,19.993,1.678c1.362,0,3.229,0,3.544-1.527c0.757-3.663-4.245-4.827-11.815-6.59
	c-0.568-0.132-1.154-0.269-1.753-0.41c13.822-2.385,17.01-3.496,17.01-5.889c0.001-3.016-3.877-3.48-8.366-4.019
	c-2.979-0.357-7.483-0.896-8.017-2.312c-0.104-0.274-0.256-1.378,2.141-4.057c0.829-0.927,0.586-1.771,0.442-2.09
	c-0.507-1.133-1.836-1.133-2.272-1.133c-2.96,0-10.794,2.054-20.728,4.739c-3.325,0.899-7.014,1.896-8.665,2.251
	c-3.002-8.48-2.918-52.597-1.897-97.855c2.232-1.901,3.68-4.886,3.68-8.249c0-3.158-1.276-5.986-3.279-7.894
	c0.34-12.624,0.734-25.017,1.135-36.416c20.451-7.126,36.172-15.088,38.73-23.192c3.93-12.451,10.782-13.719,19.459-15.324
	c11.143-2.062,25.011-4.628,38.167-31.154c13.656-27.532,15.139-49.407,4.407-65.018c-3.111-4.526-6.122-8.736-9.033-12.807
	c-7.698-10.766-13.778-19.269-14.512-23.667c-0.304-1.822-0.041-3.333,0.74-4.255c0.493-0.582,1.179-0.903,1.931-0.903
	c0.888,0,1.771,0.446,2.426,1.225c0.442,0.527,4.133,6.026,8.806,12.988c30.789,45.878,36.438,53.283,38.064,53.285l0.636-0.043
	l0.295-0.467C329.767,109.145,329.664,108.452,328.357,105.728z M182.76,263.372c0,2.238,0.645,4.307,1.729,6.004
	c-0.21,36.294-0.406,75.592-0.401,95.516c-2.653,0.682-5.608,1.474-8.779,2.332c-3.325,0.899-7.014,1.896-8.665,2.251
	c-3.002-8.48-2.918-52.597-1.897-97.855c2.232-1.901,3.68-4.886,3.68-8.249c0-3.158-1.276-5.986-3.279-7.894
	c0.243-9.01,0.513-17.9,0.793-26.397c6.373-1.687,12.708-3.464,18.827-5.317c-0.063,9.909-0.135,21.375-0.208,33.496
	C183.434,258.979,182.76,261.087,182.76,263.372z"/>
<g>
</g>
<g>
</g>
<g>
</g>
<g>
</g>
<g>
</g>
<g>
</g>
<g>
</g>
<g>
</g>
<g>
</g>
<g>
</g>
<g>
</g>
<g>
</g>
<g>
</g>
<g>
</g>
<g>
</g>
</svg>
